<svg xmlns="http://www.w3.org/2000/svg" xmlns:xlink="http://www.w3.org/1999/xlink" width="264" height="163" viewBox="0 0 264 163">
    <defs>
        <linearGradient id="a" x1="50%" x2="50%" y1="0%" y2="164.002%">
            <stop offset="0%" stop-color="#78BE20" stop-opacity=".954"/>
            <stop offset="55.229%" stop-color="#FFF" stop-opacity=".4"/>
            <stop offset="85.275%" stop-color="#FFF" stop-opacity="0"/>
            <stop offset="100%" stop-color="#FFF" stop-opacity="0"/>
        </linearGradient>
        <path id="b" d="M21.73 5.242h3.22c1.8 0 2.774.805 2.774 2.263 0 1.33-1.018 2.213-2.612 2.269l2.578 3.292h-1.566l-2.493-3.292h-.638v3.292H21.73V5.242zm3.187 1.185h-1.924v2.201h1.924c1.017 0 1.493-.368 1.493-1.123 0-.743-.504-1.078-1.493-1.078z"/>
    </defs>
    <g fill="none" fill-rule="evenodd" transform="translate(0 1)">
        <ellipse cx="46.081" cy="61.779" fill="#78BE20" fill-opacity=".3" fill-rule="nonzero" stroke="#009639" stroke-width="1.5" rx="2.623" ry="2.621"/>
        <ellipse cx="166.717" cy="2.621" fill="#78BE20" fill-opacity=".3" fill-rule="nonzero" stroke="#009639" stroke-width="1.5" rx="2.623" ry="2.621"/>
        <ellipse cx="95.909" cy="8.237" fill="#78BE20" fill-opacity=".3" fill-rule="nonzero" stroke="#009639" stroke-width="1.5" rx="5.245" ry="5.242"/>
        <ellipse cx="203.057" cy="55.414" fill="#78BE20" fill-opacity=".3" fill-rule="nonzero" stroke="#009639" stroke-width="1.5" rx="2.248" ry="2.247"/>
        <g fill-rule="nonzero" stroke="#78BE20" stroke-linecap="square" stroke-width="1.5">
            <path d="M59.415 75.5h5.3M62.111 72.858l-.092 5.283"/>
        </g>
        <g fill-rule="nonzero" stroke="#78BE20" stroke-linecap="square" stroke-width="1.5">
            <path d="M200.28 26.825h5.301M202.977 24.183l-.092 5.284"/>
        </g>
        <g fill-rule="nonzero" stroke="#78BE20" stroke-linecap="square" stroke-width="1.5">
            <path d="M211.52 80.741h5.3M214.217 78.1l-.093 5.283"/>
        </g>
        <g fill-rule="nonzero" stroke="#78BE20" stroke-linecap="square" stroke-width="1.5">
            <path d="M54.919 24.579h5.3M57.615 21.937l-.092 5.283"/>
        </g>
        <path fill-rule="nonzero" stroke="#009639" stroke-linecap="square" stroke-width="1.5" d="M112.393 150.142h2.248"/>
        <g stroke="#009639" stroke-width="1.5">
            <path d="M73.81 114.762h7.802"/>
            <path fill="#78BE20" fill-opacity=".25" d="M85.099 119.78H58.726c-.94 0-1.701-.747-1.701-1.67v-16.845c0-.92.761-1.668 1.701-1.668H85.1c.94 0 1.702.747 1.702 1.668v16.846c0 .922-.762 1.668-1.702 1.668z"/>
            <path fill="#78BE20" fill-opacity=".7" d="M57.025 103.413H86.8v5.008H57.025z"/>
        </g>
        <path fill="#78BE20" fill-opacity=".1" d="M188.24 90.027c.858-4.35 1.33-9.005 1.33-13.982V36.946c0-2.705-2.657-4.754-5.407-3.985-.038.01-3.47.962-8.734.962-11.132 0-27.252-4.034-40.836-23.261-1.58-2.234-5.357-2.234-6.936 0-16.4 23.211-39.52 25.649-49.553 22.304-2.685-.785-5.423 1.19-5.423 3.981v39.098c0 14.034-1.787 12.716 3.8 22.02l6.354.362 7.822 12.61c-4.138 4.453-6.096 6.953-5.873 7.499 3.374 4.588 6.56 8.145 9.559 10.672 2.998 2.526 6.978 5.449 11.939 8.767l1.823-5.474 8.42 2.497 7.215-.142c2.056-2.401 5.72-2.244 10.993.471.013.007.937.377 2.771 1.11l2.003-1.409 7.783-2.18 2.441 7.488c2.27-1.253 4.038-2.29 5.307-3.11 1.268-.82 3.149-2.145 5.642-3.972l-.129-8.2-4.89 2.98 9.126-7.654-.105-9.873 7.29-.944.184 5.159 11.711-8.48 4.372-16.215zm-89.623 39.735a89.009 89.009 0 0 0 6.984 5.155m44.991 3.718a95.9 95.9 0 0 0 7.168-4.47m15.44-13.652a70.61 70.61 0 0 0 3.395-4.226"/>
        <path fill="#78BE20" fill-opacity=".2" fill-rule="nonzero" d="M139.468 135.994l-2.144.688c-5.014-2.385-8.486-3.223-10.418-2.513-1.22.448-3.479 1.211-4.98 3.265-.586.8-1.212 2.437-1.88 4.91.075.912.603 1.519 1.584 1.822.98.302 2.47-.863 4.467-3.495l3.11-.745 10.26 8.407c.751.579 1.133 1.07 1.146 1.473.013.403.96.236 2.842-.502l-3.987-13.31z"/>
        <path fill="#78BE20" fill-opacity=".2" fill-rule="nonzero" d="M112.808 146.474c.743 1.924 2.573 4.167 5.488 6.727 4.373 3.842 6.899 6.188 8.81 5.37 1.276-.544 1.116-1.767-.477-3.669l3.196 2.637c1.511.812 2.597.812 3.258 0s.661-1.69 0-2.637c1.766 1.082 3.08 1.082 3.944 0 .863-1.08.863-2.03 0-2.846 1.711.562 2.785.352 3.223-.63.656-1.475-.039-2.726-2.408-4.26-1.579-1.024-4.444-3.409-8.595-7.155-1.071.355-1.944.537-2.618.549-1.01.016-2.211 2.77-3.86 3.19-1.65.42-2.62-.804-2.715-1.532-.04-.31-.1-2.088.87-3.838.363-.655 1.241-1.615 2.635-2.88-1.844-.22-3.197-.3-4.059-.244-.861.057-2.07.223-3.627.498l-3.065 10.72z"/>
        <path stroke="#009639" stroke-width="1.5" d="M136.761 151.962l-4.488-3.77M133.286 155.008l-3.66-2.994M112.658 146.335c1.302 3.742 11.788 11.844 11.788 11.844 2.53 2.14 4.815-1.126 2.736-2.886l-1.594-1.546"/>
        <path stroke="#009639" stroke-width="1.5" d="M125.588 153.747l4.336 3.765c2.495 2.11 4.928-1.334 2.867-3.078l1.094.926c2.18 1.845 5.05-1.558 2.876-3.398l.17.143c2.18 1.845 5.05-1.558 2.875-3.398l-10.735-8.751s-2.07.793-2.871.565c0 0-3.091 4.74-5.35 3.092-2.26-1.647-.001-8.661 6.351-9.663 0 0 2.859-.815 9.86 2.793l2.596-.786"/>
        <path fill="#78BE20" fill-opacity=".5" stroke="#009639" stroke-width="1.5" d="M111.443 150.62l-7.609-2.154 4.464-15.753 7.609 2.154zM139.625 135.288l7.609-2.154 4.464 15.753-7.609 2.153z"/>
        <path stroke="#009639" stroke-width="1.5" d="M115.605 135.93s.369-.67 8.439-.845M140.498 149.825s2 .518 3.05-.68M151.342 140.313a94.539 94.539 0 0 0 7.902-5.166m25.076-30.79c3.251-7.79 5.25-16.811 5.25-27.219V37.402c0-2.749-2.657-4.832-5.407-4.05-.038.01-3.47.978-8.734.978-11.132 0-27.252-4.1-40.836-23.641-1.58-2.27-5.357-2.27-6.936 0-16.4 23.59-39.52 26.067-49.553 22.668-2.685-.798-5.423 1.209-5.423 4.046v39.735c0 8.594 1.363 16.244 3.668 23.035m8.652 20.117c1.103 1.212 2.042 2.259 2.953 3.247m5.526 5.49c.375.338.768.688 1.185 1.053m7.805 6.265a75.875 75.875 0 0 0 2.63 1.78"/>
        <path fill="url(#a)" fill-opacity=".5" fill-rule="nonzero" stroke="#009639" stroke-width="1.5" d="M164.843 102.59V98.88c0-1.041-.619-1.975-1.554-2.344-10.977-4.341-23.163-9.732-24.187-13.09V79.92c2.277-2.383 4.073-5.708 5.136-9.6 2.554-1.835 3.189-5.618 1.075-8.279v-7.888c0-8.143-4.431-13.717-14.561-13.717-9.869 0-14.566 5.574-14.566 13.717v7.89c-2.11 2.657-1.476 6.438 1.075 8.275 1.062 3.894 2.86 7.218 5.138 9.602v3.524c-1.02 3.354-13.21 8.746-24.186 13.09-.936.37-1.555 1.302-1.555 2.343v3.712"/>
        <g fill-rule="nonzero" stroke="#009639" stroke-linecap="square" stroke-width="1.5">
            <path d="M225.203 109.705h6.66M235.651 109.481h2.623M225.327 105.212h20.648"/>
        </g>
        <g transform="translate(209.8 153.512)">
            <ellipse cx="4.496" cy="2.247" fill="#78BE20" fill-opacity=".5" fill-rule="nonzero" rx="4.496" ry="2.247"/>
            <path stroke="#009639" stroke-width="1.5" d="M0 5.282c0 1.161 2.023 2.103 4.518 2.103 2.496 0 4.518-.942 4.518-2.103V1.664S7.652-.064 4.16.002C.665.067 0 1.664 0 1.664v3.618z"/>
            <ellipse cx="4.518" cy="2.104" stroke="#009639" stroke-width="1.5" rx="4.518" ry="2.104"/>
        </g>
        <g transform="translate(202.308 144.526)">
            <ellipse cx="4.496" cy="2.247" fill="#78BE20" fill-opacity=".5" fill-rule="nonzero" rx="4.496" ry="2.247"/>
            <path stroke="#009639" stroke-width="1.5" d="M0 5.282c0 1.161 2.023 2.103 4.518 2.103 2.496 0 4.518-.942 4.518-2.103V1.664S7.652-.064 4.16.002C.665.067 0 1.664 0 1.664v3.618z"/>
            <ellipse cx="4.518" cy="2.104" stroke="#009639" stroke-width="1.5" rx="4.518" ry="2.104"/>
        </g>
        <g transform="translate(215.046 134.042)">
            <ellipse cx="4.496" cy="2.995" fill="#78BE20" fill-opacity=".5" fill-rule="nonzero" rx="4.496" ry="2.247"/>
            <g stroke="#009639" stroke-width="1.5">
                <path d="M.038 5.065c0 1.162 2.023 2.103 4.518 2.103 2.496 0 4.518-.941 4.518-2.103M.038 7.706c0 1.162 2.023 2.103 4.518 2.103 2.496 0 4.518-.941 4.518-2.103M.038 10.347c0 1.162 2.023 2.104 4.518 2.104 2.496 0 4.518-.942 4.518-2.104M.038 12.988c0 1.162 2.023 2.104 4.518 2.104 2.496 0 4.518-.942 4.518-2.104"/>
                <path d="M9.074 2.379v13.25c0 1.162-2.022 2.104-4.518 2.104-2.495 0-4.518-.942-4.518-2.104V2.38"/>
                <ellipse cx="4.556" cy="2.379" rx="4.518" ry="2.104"/>
            </g>
        </g>
        <path fill="#78BE20" fill-opacity=".5" stroke="#009639" stroke-width="1.5" d="M173.795 132.766h-3.531a.773.773 0 0 0-.773.773v.95c0 .827.968.805 1.823.951-.331.649-.91 6.244-.91 6.244v6.84c0 .76.618 1.378 1.38 1.378h2.105c.762 0 1.38-.617 1.38-1.378v-2.568h18.099v2.568c0 .76.617 1.378 1.379 1.378h2.105c.762 0 1.38-.617 1.38-1.378v-6.84s-.58-5.598-.912-6.248c.842-.143 1.8-.118 1.8-.948v-.95a.773.773 0 0 0-.773-.772h-3.506s-.366 2.734-3.51 2.67c-3.144-.063-14.331 0-14.331 0s-1.532-.2-2.102-.674c-.57-.475-1.103-1.996-1.103-1.996z"/>
        <path fill="#78BE20" fill-opacity=".2" stroke="#009639" stroke-width="1.5" d="M194.84 132.678c0 1.525-1.743 2.762-3.39 2.762h-14.264c-1.647 0-3.39-1.236-3.39-2.762l1.36-5.018c.282-1.41 1.335-2.763 2.982-2.763h12.36c1.647 0 2.7 1.315 2.982 2.763l1.36 5.018z"/>
        <path stroke="#009639" stroke-width="1.5" d="M181.052 140.69h6.532M181.052 143.31h6.532"/>
        <ellipse cx="176.448" cy="141.385" stroke="#009639" stroke-width="1.5" rx="2.038" ry="2.036"/>
        <ellipse cx="192.188" cy="141.385" stroke="#009639" stroke-width="1.5" rx="2.038" ry="2.036"/>
        <path fill="#78BE20" fill-rule="nonzero" d="M198.873 118.316h25.164v-16.474h-29.971v5.693c-.233 2.61-.346 4.667-.341 6.17.005 1.503 1.721 3.04 5.148 4.611z"/>
        <path fill-rule="nonzero" stroke="#009639" stroke-width="1.5" d="M198.2 117.566l-4.883-3.733v-11.99h30.72v15.723H198.2z"/>
        <path fill-rule="nonzero" stroke="#009639" stroke-linecap="square" stroke-width="1.125" d="M202.682 104.088h-5.352M220.04 114.572h-4.62"/>
        <g transform="translate(175.333 101.093)">
            <use fill="#333" xlink:href="#b"/>
            <use fill="#CEDC00" xlink:href="#b"/>
        </g>
        <path stroke="#009639" stroke-width="1.5" d="M182.62 127.518h3.404M198.231 145.956h-27.826"/>
        <g fill-rule="nonzero" stroke="#009639" stroke-width="1.5">
            <path d="M206.803 143.777v-20.219m-45.706 0v25.486M212.798 128.051l-28.848-20.967-28.847 20.967"/>
            <path fill="#78BE20" fill-opacity=".2" d="M171.587 115.795v-5.716h-6.68v10.938"/>
        </g>
        <g>
            <g stroke="#009639" stroke-width="1.5">
                <path d="M73.462 140.664v15.782h25.367V140.53M88.564 140.037h11.862v-7.449h-28.56v7.45h12M86.133 132.588s-13.558-5.192-7.966-9.583c5.258-4.128 7.966 9.583 7.966 9.583zM86.133 132.588s2.036-11.722 6.814-8.373c4.492 3.149-6.814 8.373-6.814 8.373z"/>
                <path d="M83.866 132.588h4.698v23.858h-4.698z"/>
            </g>
            <path fill="#78BE20" fill-opacity=".2" fill-rule="nonzero" d="M71.931 132.544h11.99v7.488H71.93zM88.416 132.544h11.99v7.488h-11.99zM88.416 140.032h9.741v15.726h-9.74z"/>
            <path fill="#78BE20" fill-opacity=".2" fill-rule="nonzero" d="M83.92 133.293h4.496v22.465H83.92zM74.18 140.032h9.74v15.726h-9.74z"/>
        </g>
        <path fill="#FFF" fill-rule="nonzero" d="M56.017 111.784l7.477.023 5.405 8.836-9.461.408c-2.275.03-3.48-1.16-3.615-3.57-.135-2.41-.07-4.309.194-5.697z"/>
        <g stroke="#009639" stroke-width="1.5">
            <path fill-rule="nonzero" stroke-linecap="square" d="M29.972 124.681h4.079M26.225 128.238h10.823M20.98 121.499h14.57M13.487 121.468h2.623"/>
            <path fill="#78BE20" fill-opacity=".2" d="M51.7 145.438l16.896-21.174-6.5-10.48H41.302l-6.498 10.48z"/>
            <path d="M34.803 124.264h33.793M51.7 113.783l-6.027 10.481 6.026 21.174M51.7 113.783l6.025 10.481-6.026 21.174M57.725 124.264l4.372-10.48M45.673 124.264l-4.372-10.48"/>
        </g>
        <path fill="#FFF" fill-rule="nonzero" d="M192.16 112.127l8.926 6.496h2.552l-11.21-8.349z"/>
        <path fill-rule="nonzero" stroke="#009639" stroke-linecap="square" stroke-width="1.5" d="M225.161 149.393h22.853M252.135 149.393H263M34.467 149.393H73.43M11.989 149.393h17.983"/>
        <path fill="#009639" fill-rule="nonzero" d="M0 149.393c0-.414.335-.749.749-.749h7.494a.749.749 0 1 1 0 1.498H.749a.749.749 0 0 1-.749-.749z"/>
    </g>
</svg>
